<?xml version="1.0" encoding="utf-8"?>
<!-- Generator: Adobe Illustrator 24.0.0, SVG Export Plug-In . SVG Version: 6.00 Build 0)  -->
<svg version="1.1" id="Layer_1" xmlns="http://www.w3.org/2000/svg" xmlns:xlink="http://www.w3.org/1999/xlink" x="0px" y="0px"
	 viewBox="0 0 612 792" style="enable-background:new 0 0 612 792;" xml:space="preserve">
<style type="text/css">
	.st0{opacity:0.2;}
	.st1{fill:#999999;stroke:#999999;stroke-miterlimit:10;}
	.st2{fill:#999999;stroke:#999999;stroke-width:0.5;stroke-miterlimit:10;}
	.st3{fill:#999999;stroke:#999999;stroke-width:0.75;stroke-miterlimit:10;}
	.st4{fill:#999999;}
	.st5{fill:#FF0000;stroke:#000000;stroke-width:3;stroke-miterlimit:10;}
	.st6{opacity:0.15;}
	.st7{fill:#FFFFFF;}
	.st8{fill:#0071BC;}
	.st9{fill:#FF0000;}
	.st10{fill:none;}
	.st11{font-family:'AmericanTypewriter';}
	.st12{font-size:24px;}
	.st13{opacity:0.9;fill:#FF0000;stroke:#000000;stroke-width:3;stroke-miterlimit:10;}
	.st14{opacity:0.8;fill:#FF0000;stroke:#000000;stroke-width:3;stroke-miterlimit:10;}
	.st15{opacity:0.7;fill:#FF0000;stroke:#000000;stroke-width:3;stroke-miterlimit:10;}
	.st16{opacity:0.6;fill:#FF0000;stroke:#000000;stroke-width:3;stroke-miterlimit:10;}
	.st17{opacity:0.5;fill:#FF0000;stroke:#000000;stroke-width:3;stroke-miterlimit:10;}
	.st18{opacity:0.4;fill:#FF0000;stroke:#000000;stroke-width:3;stroke-miterlimit:10;}
	.st19{opacity:0.3;fill:#FF0000;stroke:#000000;stroke-width:3;stroke-miterlimit:10;}
	.st20{fill:#39B54A;}
	.st21{fill:#A67C52;}
	.st22{font-size:40px;}
	.st23{font-size:17.7628px;}
</style>
<rect width="612" height="792"/>
<rect x="71.47" y="-46.03" class="st10" width="429.06" height="66.58"/>
<text transform="matrix(1 0 0 1 136.17 -29.7093)" class="st7 st11 st12">SavethefuckingEarth.com</text>
<g>
	<path class="st8" d="M612,349.74V792H220.69c-36.98-55.24-56.25-122.88-50.47-194.28c0.94-11.49,2.55-22.75,4.69-33.8l4.26-18.63
		c19.84-76.37,68.15-140.3,132.13-180.88c16.44-10.43,33.92-19.32,52.22-26.46c0.03-0.02,0.07-0.04,0.11-0.05
		c7.68-3.01,15.52-5.71,23.48-8.09c0.01,0,0.03-0.01,0.05-0.02c9.59-2.86,19.37-5.27,29.31-7.19c0.03-0.01,0.06-0.01,0.09-0.02
		c0.7-0.14,1.4-0.27,2.11-0.4h0.03c25.93-4.81,52.91-6.31,80.46-4.08c0.76,0.06,1.52,0.13,2.28,0.2
		c34.05,3.01,66.32,11.51,95.99,24.57C602.36,345.03,607.22,347.32,612,349.74z"/>
	<g>
		<g id="XMLID_3_">
			<path class="st20" d="M597.93,673.59c-5.53,6.82-12.35,12.61-18.27,19.15c-2.31,2.56-5.05,5.84-5.34,9
				c-1.41,15.14-10.16,26.43-18.69,37.9c-0.97,1.31-2.84,2.32-4.48,2.69c-7.21,1.63-14.56,2.66-21.72,4.53
				c-6.44,1.67-11.55,5.12-11.98,12.77c-0.12,1.99-0.61,3.69-1.36,5.17c-2.12,4.18-6.35,6.66-10.36,9.39
				c-3.02,2.06-6.44,4.13-8.38,7.08c-7.44,11.24-11.4,12.81-23.68,8.17c-1.07-0.39-2.35-0.22-4.52-0.4c0.43,1.12,0.8,2.08,1.14,2.96
				h-60.98c0.57-1.86,1.22-3.72,1.85-5.58c0.98-2.82,1.9-5.77,2.19-8.72c1.3-14.05,2.28-28.13,3.6-42.16
				c0.48-5.19,1.8-10.31,2.34-15.5c0.89-8.53-2.91-15.38-10.43-18.48c-13.92-5.76-19.83-17.17-25.08-30.04
				c-3.97-9.71-9.7-18.72-14.67-28.03c-2.59-4.85-3.58-9.51,1.31-13.62c2.87-2.39,4.17-4.18,0.61-7.83
				c-4.84-4.94,0.51-9.33,2.89-13.24c2.16-3.57,5.6-6.42,8.76-9.28c8.59-7.75,10.38-14.38,6.5-25.32c-0.5-1.4-0.95-2.81-1.06-3.16
				c3.75-2.29,8.11-3.52,10.02-6.39c4.78-7.19,11.8-9.63,19.88-11.87c1.88,4.43,4.61,6.92,9.64,3.7c1.22-0.81,3.52-0.74,5-0.19
				c6.08,2.27,11.87,5.46,18.07,7.17c4.1,1.14,8.75,0.36,13.88,0.44c5.37,1.98,7.87,8.88,14.96,11.42c1.2,0.42,2.27,1.18,3.26,2.12
				c2.98,2.83,5.32,7.42,8.4,10.51c1.44,1.44,4.22,2.59,6.21,2.34c12.11-1.51,23.05,5.74,26.89,17.15
				c2.21,6.56,4.37,12.11-3.46,16.33c-0.71,0.39,0.02,3.46,0.09,5.28c1.55-0.33,3.2-0.48,4.66-1.04c2.49-0.96,4.87-2.19,7.31-3.31
				c0.48,0.82,0.97,1.63,1.45,2.44l-6.19,6.54c0.28,0.65,0.56,1.3,0.84,1.96c2.11-0.74,4.53-1.05,6.24-2.3
				c7.18-5.31,14.29-3.96,18.94,3.4c1.17,1.82,3.75,3.28,5.94,3.79c10.3,2.42,21.79,1.9,28.31,12.81c0.94,1.58,3,2.74,4.78,3.51
				C600.55,660,603.09,667.23,597.93,673.59z"/>
			<path class="st20" d="M597.93,673.59c5.16-6.36,2.61-13.59-4.69-16.75c-1.79-0.77-3.84-1.93-4.79-3.5
				c-6.52-10.91-18.01-10.39-28.31-12.81c-2.19-0.51-4.77-1.97-5.94-3.79c-4.66-7.35-11.77-8.71-18.95-3.4
				c-1.7,1.25-4.13,1.56-6.23,2.3c-0.28-0.66-0.57-1.31-0.85-1.96l6.19-6.54c-0.48-0.82-0.97-1.62-1.45-2.44l1.26-2.17
				c8.31,4.48,18.75,4.7,24.64,13.37c0.48,0.71,1.72,1.01,2.68,1.26c11.15,2.95,23.72,2.9,30.59,14.85
				c0.48,0.83,2.17,1.26,3.35,1.39c5.01,0.48,6.19,3.71,7.28,8.1c1.91,7.53-0.12,13.41-5.37,18.6c-5.38,5.34-10.9,10.52-16.09,16.04
				c-1.74,1.84-3.64,4.41-3.82,6.76c-1.11,15.39-10.14,26.95-18.71,38.56c-1.9,2.58-6.37,3.61-9.87,4.57
				c-7.15,2-14.73,2.79-21.56,5.51c-2.89,1.16-4.49,5.85-6.4,9.1c-0.96,1.62-1.65,3.45-2.42,5.21l-2.39-1.05
				c0.75-1.48,1.24-3.18,1.35-5.17c0.44-7.64,5.54-11.09,11.98-12.77c7.16-1.86,14.51-2.9,21.73-4.53c1.63-0.37,3.5-1.38,4.48-2.69
				c8.53-11.46,17.28-22.75,18.69-37.89c0.29-3.17,3.03-6.44,5.34-9C585.58,686.2,592.4,680.41,597.93,673.59z"/>
			<path class="st20" d="M507.67,381.28c-6.98,1.19-14.19,4.06-20.9,3.18c-9.08-1.19-16.89-0.15-24.62,4.39
				c-1.64,0.97-3.9,0.87-5.89,1.26c0.89,1.13,1.79,2.25,2.67,3.38c5.35-1.57,10.68-3.15,16.55-4.87c1.25,7.37,1.55,11.36-7.11,13.09
				c-6.95,1.39-16.9,1.09-19.28,11.49c-0.05,0.21-0.35,0.54-0.52,0.52c-8.02-0.47-12.82,6.5-19.56,8.49
				c-4.3,1.27-6.8,2.18-6.86,7.03c-0.05,5.51-2.5,9.58-8.02,11.55c-2.34,0.85-4.44,2.39-6.72,3.47
				c-13.45,6.35-14.67,8.69-13.85,23.35c0.21,3.79-1.08,7.67-1.66,11.5c-1.24-0.01-2.49-0.03-3.72-0.06
				c-0.58-3.6-1.72-7.24-1.61-10.82c0.21-6.12-0.5-10.22-8.3-10.23c-0.92,0-1.84-0.1-2.76-0.25c-4.49-0.76-9-2.91-13.37-2.55
				c-8.44,0.72-16.82,2.36-25.15,4.04c-2,0.39-4,0.81-6.01,1.19c-2.08,0.41-5.01,1.73-5.63,3.36c-4.15,10.9-12.95,19.85-12.62,32.69
				c0.31,11.23,4.85,14.99,15.91,14.71c6.65-0.16,10.11-2.31,13.01-7.71c2.99-5.61,7.89-6.4,13.85-3.99
				c-4.36,8.43-8.63,16.66-13.86,26.71c6.31,0.01,10.67-0.2,15.03,0.06c4.27,0.27,9.53,1.66,8.75,6.01
				c-0.09,0.5-0.25,1.03-0.51,1.61c-4.61,10.38-6.53,19.85,2.33,29.66c-1.1,0.41-2.2,0.83-3.31,1.24
				c-3.73-5.01-8.2-9.64-11.02-15.12c-3.64-7.06-8.29-11.83-15.89-14.8c-4.72-1.85-8.9-6.03-12.3-10.05
				c-3.09-3.66-5.33-6.05-10.66-4.07c-2.57,0.95-6.56,0.11-9.1-1.35c-5.23-2.97-10.02-6.75-14.77-10.48
				c-0.72-0.56-1.41-1.12-2.04-1.71c-4.12-3.74-6.37-8.03-2.26-14.35c1.27-1.96,0.6-5.39,0.35-8.09
				c-1.22-12.63-2.6-25.25-3.92-37.88c-0.1-0.99,0.2-2.32-0.33-2.93c-4.28-4.79-6.02-9.5-6.12-14.02
				c-0.15-7.89,4.69-15.24,9.7-21.54c8.58-10.74,20.54-18.75,30.99-27.99c1.3-1.16,3.06-2.47,3.37-3.96
				c0.67-3.21,1.97-5.87,3.66-8.21c4.28-5.94,11.07-9.67,16.34-14.68c21.65-20.58,50.42-24.11,77.57-31.23
				c3.07-0.8,7.04,1.81,10.6,2.83l-0.35,2.83c-3.37,0.46-6.75,0.93-10.39,1.43c5.57,5.17,17.09,5.54,24.81,1.08
				c1.44,6.59-0.13,8.22-7.58,10.12c-7.02,1.78-13.99,3.98-20.66,6.78c-1.27,0.54-2.51,1.77-3.42,3.19
				c-0.72,1.12-1.24,2.33-1.47,3.42c-0.26,1.35,2.8,3.74,4.76,5.09c3.48,2.4,7.55,4,10.77,6.67c1.5,1.24,1.21,4.42,2.34,6.36
				c1.5,2.59,3.58,4.84,5.4,7.23c1.94-1.93,3.93-3.83,5.83-5.82c2.12-2.2,3.77-5.22,6.33-6.48c3.91-1.94,6.36-3.48,6.54-8.71
				c0.06-1.64,1.03-3.89,2.29-5.71c1.21-1.73,2.69-3.11,3.89-3.21c3.76-0.37,9.1,1.9,11.53,4.87c3.83,4.68,6.32,9.08,13.24,5.04
				c1.25-0.72,5.41,0.55,5.63,1.49c2.33,9.84,12.25,11.05,18.24,16.62C506.4,377.99,507.01,378.42,507.67,381.28z"/>
			<path class="st20" d="M530.78,620.32c1.08,0.85,2.22,1.57,3.41,2.22l-1.26,2.17c-2.44,1.12-4.82,2.34-7.31,3.3
				c-1.47,0.57-3.11,0.71-4.66,1.04c-0.07-1.82-0.79-4.89-0.09-5.27c7.84-4.22,5.68-9.77,3.46-16.33
				c-3.84-11.41-14.78-18.66-26.89-17.16c-1.99,0.25-4.77-0.89-6.21-2.34c-3.08-3.09-5.42-7.68-8.4-10.51l1.5-1.51
				c2.84,2.81,5.7,5.59,8.61,8.32c1.62,1.51,4.48,2.41,6.74,2.35C520.35,586.11,530.32,605.03,530.78,620.32z"/>
			<path class="st20" d="M509.11,374.85c0.22,0.08,0.57,0.35,0.54,0.47c-0.28,1.75-0.32,4.19-0.57,6.08l-1.41-0.11
				c-0.67-2.86-1.28-3.29-1.81-3.81c-5.99-5.57-15.91-6.79-18.24-16.62c-0.23-0.95-4.39-2.22-5.63-1.49
				c-6.92,4.03-9.41-0.37-13.24-5.04c-2.43-2.98-7.77-5.24-11.53-4.87c-1.2,0.1-2.68,1.48-3.89,3.21l-3.83-1.78
				c3.88-5.73,9.47-10.2,17.44-13.09l3.56,2.85c-0.52,0.23-1.06,0.46-1.58,0.7c0.1,1.02,0.19,2.05,0.29,3.08
				c4.67,1.33,9.34,2.64,15.67,4.43l1.41,1.64c-0.49,0.39-0.96,0.76-1.44,1.15C491.7,361.21,498.13,370.54,509.11,374.85z"/>
			<path class="st20" d="M518.48,765.85c-0.85,1.88-1.76,3.67-3.12,5.01c-4.18,4.12-10.86,6.25-13.86,10.91
				c-2.74,4.26-5.69,7.8-9.2,10.23h-22.01c-0.34-0.88-0.71-1.84-1.14-2.96c2.17,0.18,3.45,0.01,4.52,0.4
				c12.28,4.64,16.24,3.07,23.68-8.17c1.94-2.95,5.36-5.02,8.38-7.08c4.01-2.73,8.24-5.21,10.36-9.39L518.48,765.85z"/>
			<path class="st20" d="M478.36,324.74c1.64,0.13,19.72,1.38,37.84,2.56c-3.25-2.1-6.57-4.04-10.09-5.7
				c-1.93-0.91-3.46-2.03-4.67-3.3c-0.01-0.01-0.01-0.01-0.02-0.02l-2.26-0.18l-9.04-0.73l-42.03-3.41
				c-1.23-0.1-2.45,0.02-3.63,0.36c-0.86,0.24-1.72,0.48-2.58,0.68c-8.19,1.93-16.49,3.58-24.78,5.25l0.42,2.08
				c0.19-0.05,0.38-0.09,0.58-0.11c0.04-0.01,0.07-0.01,0.11-0.02h0.04c0.01,0,0.01,0,0.02,0c0.12-0.01,0.25-0.02,0.37-0.02h0.06
				c2.87-0.04,6.3,2.08,9.41,2.97l-0.35,2.83c-3.37,0.46-6.75,0.93-10.39,1.43c5.56,5.17,17.09,5.54,24.81,1.08
				c1.44,6.59-0.13,8.22-7.58,10.12c-7.02,1.78-13.99,3.98-20.66,6.79c-1.26,0.53-2.51,1.76-3.42,3.19l2.5,0.44
				c16.84-5.47,33.67-11,50.58-16.3c0.84-0.27,2.26,1.28,4.5,2.66c-0.39,0.13-0.77,0.26-1.16,0.39l3.55,2.85
				c1.6-0.71,3.23-1.43,5.05-2.23c-1.99-3.14-3.24-5.13-4.52-7.13c6.68-1.43,8.93,1.17,13.85,17.57l1.41,1.64
				c3.38-2.72,6.97-5.62,10.97-8.85c-6.59-4.95-12.85-9.64-19.09-14.34C478.22,326.44,478.29,325.59,478.36,324.74z M445.97,321.01
				c6.93-0.53,12.65-0.99,20.1-1.57C460.05,325.36,450.05,325.92,445.97,321.01z"/>
			<path class="st20" d="M432.54,365.9c-0.09,0.3-0.19,0.6-0.27,0.89c3.73-3.1,7.46-6.19,11.2-9.28c0.5,0.79,1.02,1.58,1.53,2.37
				c1.17-3.26,2.65-6.27,4.5-9.01l3.83,1.78c-1.26,1.82-2.24,4.06-2.29,5.71c-0.18,5.22-2.62,6.76-6.54,8.71
				c-2.56,1.26-4.21,4.29-6.33,6.48c-1.9,1.98-3.89,3.88-5.83,5.82c-1.82-2.39-3.9-4.64-5.4-7.23c-1.13-1.94-0.84-5.12-2.34-6.36
				c-3.22-2.67-7.29-4.27-10.77-6.67c-1.97-1.35-5.03-3.74-4.76-5.09c0.23-1.1,0.75-2.31,1.47-3.42l2.5,0.45
				c-0.09,1.14-0.2,2.27-0.31,3.4C419.37,358.28,426.03,362.12,432.54,365.9z"/>
			<path class="st20" d="M426.24,433.56c-3.4,2.93-5.74,7.12-9.27,9.83c-3.11,2.39-7.24,3.44-10.89,5.18
				c-9.27,4.39-11.01,8.1-9.41,18.55c1.08,7.08,0.53,13.68-9.38,17.93c-1.48-5.31-2.94-10.09-4.14-14.92
				c-0.51-2.15,0.23-4.93-0.88-6.53c-1.12-1.62-3.93-2.78-7.25-3.44l0.48-2.4c0.92,0.15,1.84,0.26,2.76,0.25
				c7.8,0.01,8.51,4.11,8.3,10.23c-0.11,3.58,1.03,7.21,1.61,10.82c1.23,0.02,2.48,0.05,3.72,0.06c0.59-3.83,1.88-7.71,1.66-11.5
				c-0.83-14.66,0.4-17.01,13.85-23.35c2.29-1.08,4.38-2.62,6.72-3.47c5.52-1.97,7.97-6.04,8.02-11.55
				c0.06-4.85,2.56-5.76,6.86-7.03c6.74-1.99,11.54-8.96,19.56-8.49c0.17,0.01,0.47-0.31,0.52-0.52
				c2.39-10.4,12.33-10.1,19.28-11.49c8.66-1.73,8.36-5.72,7.11-13.09c-5.87,1.72-11.2,3.31-16.55,4.87
				c-0.89-1.13-1.79-2.25-2.67-3.38c1.99-0.39,4.25-0.3,5.89-1.26c7.73-4.53,15.54-5.58,24.62-4.39c6.71,0.88,13.92-1.99,20.9-3.18
				l1.41,0.11c-0.18,1.48-0.5,2.62-1.13,2.86c-6.26,2.23-12.97,3.87-19.57,4.11c-4.55,0.17-7.22,0.87-8.39,5.34
				c-1.52,5.71,2.83,5.19,6.13,6.16c1.49,0.43,3.12,1.58,3.86,2.89c0.38,0.64-1.04,3.37-1.77,3.43c-6.65,0.51-12.42,6.08-20.25,1.96
				c-3.21-1.68-12.26,0.72-13.26,3.34c-2.05,5.33-6.05,4.96-9.37,7.12C438.57,422.98,432.35,428.27,426.24,433.56z"/>
			<path class="st20" d="M484.33,575.92l-1.5,1.52c-0.99-0.94-2.06-1.7-3.26-2.12c-7.09-2.54-9.59-9.44-14.96-11.42
				c-5.13-0.08-9.78,0.7-13.88-0.44c-6.2-1.71-11.99-4.9-18.07-7.17c-1.48-0.55-3.78-0.62-5,0.19c-5.03,3.22-7.76,0.73-9.64-3.7
				c-8.08,2.24-15.1,4.68-19.88,11.87c-1.91,2.87-6.27,4.1-10.02,6.39c0.11,0.35,0.56,1.76,1.06,3.16
				c3.88,10.94,2.09,17.57-6.5,25.32c-3.16,2.86-6.6,5.71-8.76,9.28c-2.38,3.91-7.73,8.3-2.89,13.24c3.56,3.65,2.26,5.44-0.61,7.83
				c-4.89,4.11-3.9,8.77-1.31,13.62c4.97,9.31,10.7,18.32,14.67,28.03c5.25,12.87,11.16,24.28,25.08,30.04
				c7.52,3.1,11.32,9.95,10.43,18.48c-0.54,5.19-1.86,10.31-2.34,15.5c-1.32,14.03-2.3,28.11-3.6,42.16
				c-0.29,2.95-1.21,5.9-2.19,8.72c-0.63,1.86-1.28,3.72-1.85,5.58h-2.93c0.22-1.49,0.45-2.98,0.67-4.46
				c0.75-4.9,2.57-9.66,3.15-14.57c1.75-14.75,2.18-29.72,4.92-44.26c2.32-12.2,1.15-18.51-9.21-25.19
				c-2.74-1.78-5.59-3.42-8.43-5.04c-6.16-3.5-9.71-8.5-12.33-15.38c-4.46-11.7-9.81-23.33-16.57-33.83
				c-4.8-7.46-6.9-13.59-1.9-21.26c0.56-0.82,0.53-2.38,0.18-3.4c-2.77-8.33,1.49-13.99,6.37-20.17
				c5.29-6.69,16.27-10.03,14.34-21.27c-0.99-5.72-3.26-11.18-5.4-18.21c-1.93,2.5-3.21,3.45-3.49,4.63
				c-1.54,6.58-5.32,4.88-8.95,2.38c-2.45-1.7-4.86-3.44-7.25-5.2l1.46-1.99c1.1-0.42,2.21-0.83,3.31-1.24
				c-8.86-9.81-6.94-19.29-2.33-29.66c0.26-0.58,0.42-1.11,0.51-1.61l2.43,0.38c-0.47,2.62-1.56,6.07-3.04,10.69
				c-0.73,2.33-0.95,5.05-0.65,7.49c0.81,6.55,5.78,10.85,11.28,9.11c5.89-1.84,10.68-1,15.66,2.37c1.2,0.8,4.96,0.14,5.59-0.97
				c3.79-6.67,9.99-8.38,16.6-11.26c9.69-4.2,15.99-0.42,23.29,3.96c2.95,1.77,6.84,1.99,9.78,3.77c6.14,3.75,12.16,3.4,18.72,1.41
				c1.4-0.42,3.97,1.66,5.48,3.12C475.22,566.8,479.75,571.38,484.33,575.92z"/>
			<path class="st20" d="M371.61,332.01c14.59-5.43,30.03-8.65,45.49-11.76l0.41,2.08c-27.16,7.11-55.92,10.65-77.57,31.23
				c-5.26,5.01-12.05,8.73-16.34,14.68l-2.67-1.77c1.34-2.04,2.59-4.22,3.7-6.52c-2.06,1.05-3.86,1.87-5.55,2.88
				c-2.74,1.64-5.45,3.36-8.12,5.07c0.43-1.87,0.45-3.8,0.05-5.75C329.69,350.19,349.95,340.07,371.61,332.01z"/>
			<path class="st20" d="M362.15,455.21c4.37-0.36,8.88,1.79,13.37,2.55l-0.48,2.4c-5.14-1.04-11.47-0.94-14.53,0.32
				c-3.02,1.27-7.1,1.53-10.23,0.62c-2.82-0.81-8.05-0.58-12.8,0.47l-0.47-2.33C345.33,457.57,353.71,455.93,362.15,455.21z"/>
			<path class="st20" d="M350.98,522.93c14.48,1.59,18.27,2.12,16.88,9.72l-2.43-0.38c0.78-4.35-4.48-5.74-8.75-6.01
				c-4.36-0.26-8.73-0.05-15.03-0.06c5.23-10.05,9.5-18.29,13.86-26.71c-5.96-2.41-10.86-1.61-13.85,3.99
				c-2.9,5.4-6.35,7.55-13.01,7.71c-11.06,0.28-15.6-3.48-15.91-14.71c-0.33-12.84,8.47-21.79,12.62-32.69
				c0.62-1.63,3.55-2.95,5.63-3.36c2-0.39,4-0.81,6.01-1.19l0.47,2.33c-4.63,1.04-8.83,2.87-10.02,5.33
				c-4.44,9.15-8.16,18.74-11.15,28.47c-1.7,5.48,0.58,11.45,6.78,12.47c5.53,0.91,12.28,1.48,15.43-5.76
				c2.61-6,7.67-7.46,13.65-7.15c8.13,0.41,9.22,2.72,5.03,9.84c-3.17,5.42-5.88,11.13-8.68,16.53
				C350.14,522.41,350.54,522.88,350.98,522.93z"/>
			<path class="st20" d="M352.92,549.66c2.82,5.48,7.29,10.12,11.02,15.12l-1.46,1.99c-3.66-2.68-7.27-5.41-10.86-8.18
				c-1.09-0.84-2.34-2.39-2.32-3.59c0.09-10.77-7.41-14.27-15.74-17.52c-3.37-1.31-7.36-3.42-9-6.35
				c-3.27-5.79-6.64-8.94-13.54-6.27c-1.4,0.54-3.81,0.04-5.09-0.89c-6.59-4.78-13.34-9.42-19.5-14.73l1.72-2.04
				c0.64,0.59,1.33,1.15,2.04,1.71c4.75,3.73,9.55,7.51,14.77,10.48c2.54,1.46,6.53,2.3,9.1,1.35c5.34-1.98,7.57,0.41,10.66,4.07
				c3.4,4.02,7.58,8.2,12.3,10.05C344.63,537.82,349.28,542.6,352.92,549.66z"/>
			<path class="st20" d="M281.56,478.22c-0.87-3.55-1.87-7.07-2.86-10.74c-0.62,4.61-1.04,9.27-1.95,13.86
				c-0.28,1.41-1.86,2.57-2.83,3.85c-1.05-0.93-2.81-1.69-3.04-2.78c-1.44-7.14-3.84-14.42-3.42-21.5c0.4-6.65,4.08-13.07,5.92-19.7
				c0.71-2.55,0.32-5.41,0.43-8.12c0.05-1.02,0.05-2.07,0.04-3.11l2.03-0.05c0.09,4.53,1.83,9.23,6.12,14.02
				c0.53,0.61,0.22,1.94,0.33,2.93c1.33,12.63,2.7,25.24,3.92,37.88c0.25,2.71,0.92,6.14-0.35,8.09
				c-4.12,6.32-1.87,10.61,2.26,14.35l-1.72,2.04c-1.06-0.89-2.1-1.82-3.12-2.77c-2.28-2.14-3.62-8.4-2.16-10.8
				C284.92,489.47,282.97,484.03,281.56,478.22z"/>
			<path class="st20" d="M285.59,408.39c-5.01,6.3-9.85,13.65-9.7,21.54l-2.03,0.05c-0.04-2.86-0.15-5.74,0.66-8.33
				c4.5-14.61,14.77-25.1,26.3-34.38c7.58-6.1,14.73-12.52,20.13-20.81l2.67,1.77c-1.69,2.34-2.99,5-3.66,8.21
				c-0.32,1.49-2.07,2.79-3.37,3.96C306.13,389.64,294.17,397.65,285.59,408.39z"/>
		</g>
	</g>
</g>
<rect x="-45.32" y="759.91" class="st10" width="429.06" height="66.58"/>
<text transform="matrix(1 0 0 1 19.3781 776.2271)" class="st7 st11 st12">SavethefuckingEarth.com</text>
<path class="st7" d="M286.13,240.87c3.45,32.36,14.33,64.69,32.66,96.97c-39.37-22.43-72.64-45.78-91.87-71.32
	c-12.18,2.58-25.05,3.96-38.36,3.96c-76.16,0-137.9-45.2-137.9-100.95c0-55.76,61.74-100.96,137.9-100.96
	c76.17,0,137.91,45.2,137.91,100.96C326.47,197.38,311.06,222.6,286.13,240.87z"/>
<g>
	<g>
		<rect x="90.87" y="102.41" class="st10" width="195.13" height="124.05"/>
		<text transform="matrix(1 0 0 1 133.4553 129.61)"><tspan x="0" y="0" class="st11 st22">FUCK </tspan><tspan x="-32.28" y="48" class="st11 st22">ALL YOU </tspan><tspan x="-28.72" y="96" class="st11 st22">PEOPLE.</tspan><tspan x="138.68" y="96" class="st11 st23"> </tspan></text>
	</g>
</g>
</svg>
