<?xml version="1.0" encoding="utf-8"?>
<!-- Generator: Adobe Illustrator 24.0.0, SVG Export Plug-In . SVG Version: 6.00 Build 0)  -->
<svg version="1.1" id="Layer_1" xmlns="http://www.w3.org/2000/svg" xmlns:xlink="http://www.w3.org/1999/xlink" x="0px" y="0px"
	 viewBox="0 0 612 792" style="enable-background:new 0 0 612 792;" xml:space="preserve">
<style type="text/css">
	.st0{opacity:0.2;}
	.st1{fill:#999999;stroke:#999999;stroke-miterlimit:10;}
	.st2{fill:#999999;stroke:#999999;stroke-width:0.5;stroke-miterlimit:10;}
	.st3{fill:#999999;stroke:#999999;stroke-width:0.75;stroke-miterlimit:10;}
	.st4{fill:#999999;}
	.st5{fill:#FF0000;stroke:#000000;stroke-width:3;stroke-miterlimit:10;}
	.st6{opacity:0.15;}
	.st7{fill:#FFFFFF;}
	.st8{fill:#0071BC;}
	.st9{fill:#FF0000;}
	.st10{fill:none;}
	.st11{font-family:'AmericanTypewriter';}
	.st12{font-size:24px;}
	.st13{opacity:0.9;fill:#FF0000;stroke:#000000;stroke-width:3;stroke-miterlimit:10;}
	.st14{opacity:0.8;fill:#FF0000;stroke:#000000;stroke-width:3;stroke-miterlimit:10;}
	.st15{opacity:0.7;fill:#FF0000;stroke:#000000;stroke-width:3;stroke-miterlimit:10;}
	.st16{opacity:0.6;fill:#FF0000;stroke:#000000;stroke-width:3;stroke-miterlimit:10;}
	.st17{opacity:0.5;fill:#FF0000;stroke:#000000;stroke-width:3;stroke-miterlimit:10;}
	.st18{opacity:0.4;fill:#FF0000;stroke:#000000;stroke-width:3;stroke-miterlimit:10;}
	.st19{opacity:0.3;fill:#FF0000;stroke:#000000;stroke-width:3;stroke-miterlimit:10;}
	.st20{fill:#39B54A;}
	.st21{fill:#A67C52;}
	.st22{font-size:17.7628px;}
</style>
<rect width="612" height="796.15"/>
<rect x="91.47" y="765.32" class="st10" width="429.06" height="66.58"/>
<text transform="matrix(1 0 0 1 156.17 781.6365)" class="st7 st11 st12">SavethefuckingEarth.com</text>
<g>
	<path class="st8" d="M337.78,629.57c1.64-2.78-2.69-5.3-4.32-2.52c-2.56,4.36-3.49,9.34-4.5,14.23
		c-1.11,5.38-2.14,10.78-2.86,16.23c-0.71,5.35-1.12,10.75-0.9,16.14c0.22,5.42,1.16,10.74,2.45,16c1.21,4.96,2.52,9.89,3.82,14.83
		c-6.99-0.26-13.98-0.28-20.97-0.01c-3.21,0.12-3.22,5.12,0,5c8.08-0.31,16.17-0.27,24.24,0.13c1.66,0.08,2.8-1.66,2.41-3.16
		c-1.35-5.19-2.71-10.39-4.04-15.59c-1.27-4.95-2.42-9.93-2.78-15.04c-0.75-10.37,0.93-20.69,2.98-30.83
		C334.35,639.81,335.06,634.19,337.78,629.57z"/>
	<path class="st8" d="M408.17,706.8c-1.6-5.12-3.21-10.24-4.81-15.37c-1.55-4.95-3.15-9.92-3.95-15.06
		c-0.79-5.11-0.27-10.25,0.4-15.34c0.66-5.05,1.34-10.11,2.26-15.12c1.04-5.67,2.42-11.28,4.45-16.68c0.47-1.26-0.53-2.74-1.75-3.08
		c-1.4-0.39-2.6,0.48-3.08,1.75c-3.71,9.89-5.19,20.37-6.58,30.79c-0.71,5.3-1.47,10.63-0.93,15.98c0.55,5.4,2.02,10.61,3.63,15.78
		c1.5,4.83,3.02,9.66,4.53,14.48c-6.59-0.04-13.18-0.08-19.78-0.12c-3.22-0.02-3.22,4.98,0,5c7.73,0.05,15.46,0.09,23.18,0.14
		C407.34,709.98,408.66,708.36,408.17,706.8z"/>
	<path class="st8" d="M369.09,475.06c-39.79,0-72.83,28.81-79.47,66.7h-43.88v-40.32c0-3.22-5-3.22-5,0v41.67
		c-0.68,1.48,0.04,3.65,2.16,3.65h45.99c-0.33,2.96-0.51,5.96-0.51,9.01c0,44.57,36.13,80.7,80.7,80.7
		c30.19,0,56.49-16.59,70.33-41.14v48.92c0,3.22,5,3.22,5,0v-59.54c3.46-8.99,5.37-18.74,5.37-28.95
		C449.8,511.19,413.67,475.06,369.09,475.06z"/>
	<g>
		<g id="XMLID_1_">
			<path class="st20" d="M438.04,588.46c0.95-3.4,1.74-6.83,2.62-10.25c0.12-0.44,0.23-0.88,0.35-1.32c0.44-1.67,0.98-3.32,1.6-4.92
				c1.8-4.65,1.02-9.32,0.28-14.02c-0.2-1.27-0.08-2.59-0.05-3.89c0.03-1.26,0.32-2.55,0.13-3.77c-0.1-0.71-0.88-1.34-1.42-1.96
				c-0.42-0.49-1.1-0.8-1.38-1.34c-0.8-1.52-1.95-2.07-3.15-0.86c-1.78,1.79-4.27,0.64-6.11,1.87c-0.16,0.11-0.69-0.11-0.88-0.33
				c-1.62-1.83-3.2-3.69-4.78-5.55c-0.25-0.3-0.34-0.74-0.61-1.02c-2.53-2.68-4.25-5.59-4.2-9.43c0-0.23,0.01-0.47,0.02-0.71
				c0.11-1.63-1.13-3.32-1.52-5.03c-0.68-3.03-0.06-5.91,1.22-8.71c0.42-0.92,0.95-2.17,0.64-2.95c-0.74-1.86-0.65-3.47,0.66-4.93
				c0.82-0.51,1.73-0.93,2.45-1.57c1.14-1.01,4.02-1.11,4.57,0.23c1.15,2.84,3.8,4.05,5.86,5.83c3.01,2.6,4.12,6.18,5.66,9.51
				c2.92,6.32,4.72,13.05,5.68,19.91c0.54,3.85,0.84,7.72,0.84,11.61c0,2.89-0.16,5.8-0.53,8.73c-1.24,10.04-4.01,19.51-8.65,28.46
				c-0.18,0.35-0.39,0.69-0.6,1.03c-0.13,0.21-0.28,0.41-0.7,0.49C436.73,591.88,437.55,590.21,438.04,588.46z"/>
			<path class="st20" d="M447.21,563.47c-2.74,17.13-8.65,31.44-17.72,42.81c0.43-1.32,0.76-2.65,1.01-3.99
				c1.02-1.66,1.97-3.39,2.84-5.21c2.28-4.77,3.81-9.9,5.52-14.93c0.46-1.34,0.83-2.72,1.19-4.1l0.6,0.16
				c-0.88,3.42-1.67,6.85-2.62,10.25c-0.49,1.75-1.31,3.42-1.98,5.13c0.43-0.08,0.58-0.28,0.7-0.49c0.21-0.34,0.42-0.68,0.6-1.03
				c4.64-8.96,7.41-18.42,8.65-28.46c0.36-2.93,0.53-5.84,0.53-8.73h0.69C447.23,559.1,447.21,563.47,447.21,563.47z"/>
			<path class="st20" d="M433.14,510.7c-0.21,0.19-0.41,0.39-0.62,0.58c-0.75-0.74-1.73-1.36-2.22-2.24
				c-2.12-3.83-4.47-4.22-7.59-1.13c-0.15,0.14-0.46,0.13-1.42,0.38c2.1-2.46,0.35-4.09-0.21-5.94c-0.16-0.54,0.17-1.21,0.28-1.82
				c0.53,0.17,1.13,0.23,1.57,0.54c3.3,2.29,6.92,4.21,9.05,7.85C432.35,509.53,432.75,510.11,433.14,510.7z"/>
			<path class="st20" d="M429.19,548.25c-3.61-2.89-5.57-7.05-8.26-10.64c-0.93-1.25-1.6-2.78-1.11-4.79
				c0.09-0.36,0.13-0.74,0.13-1.14l0.48,0.01c-0.05,3.83,1.67,6.74,4.2,9.43c0.27,0.28,0.36,0.72,0.61,1.02
				c1.57,1.87,3.16,3.72,4.78,5.55c0.19,0.21,0.72,0.43,0.88,0.33c1.84-1.24,4.33-0.08,6.11-1.87c1.19-1.2,2.35-0.66,3.15,0.86
				c0.28,0.54,0.96,0.85,1.38,1.34c0.54,0.62,1.31,1.25,1.42,1.96c0.19,1.22-0.1,2.51-0.13,3.77c-0.03,1.3-0.15,2.63,0.05,3.89
				c0.74,4.7,1.52,9.37-0.28,14.02c-0.62,1.61-1.15,3.25-1.6,4.92c-0.12,0.44-0.23,0.88-0.35,1.32l-0.6-0.16
				c0.47-1.77,0.91-3.55,1.46-5.29c1.29-4,2.03-7.94,0.91-12.17c-0.74-2.8-1.2-5.73-0.27-8.7c0.37-1.17,0.15-2.4-1.5-2.77
				c-0.47-0.1-0.93-0.71-1.19-1.2c-0.87-1.65-1.28-1.7-2.8-0.49c-0.59,0.47-1.38,0.75-2.12,0.95c-0.77,0.2-1.75-0.06-2.37,0.31
				C430.94,549.41,430.2,549.06,429.19,548.25z"/>
			<path class="st20" d="M419.57,500.28c0.5,1.41,1.09,3.08,1.67,4.76c0.37,1.05,0.01,1.99-1.11,1.66c-1.31-0.39-2.7-1.11-3.62-2.1
				c-1.14-1.23-1.82-2.88-2.98-4.8h4.22c-1.78-2.09-3.16-3.71-4.55-5.33c-0.12,0.17-0.24,0.34-0.36,0.51
				c-0.15-1.39-0.3-2.78-0.5-4.61c0.58,0.1,1.54,0,2.11,0.43c2.53,1.94,4.95,4.02,7.57,6.18
				C421.15,498.15,420.43,499.12,419.57,500.28z"/>
			<path class="st20" d="M421.37,500.53c-0.11,0.61-0.44,1.29-0.28,1.82c0.56,1.85,2.31,3.48,0.21,5.94
				c0.96-0.25,1.27-0.24,1.42-0.38c3.12-3.09,5.48-2.7,7.59,1.13c0.49,0.88,1.46,1.5,2.22,2.24c0.21-0.19,0.41-0.39,0.62-0.58
				c-0.38-0.59-0.79-1.17-1.15-1.78c-2.13-3.64-5.75-5.56-9.05-7.85C422.51,500.76,421.9,500.7,421.37,500.53z M419.36,516.77
				c0.35-0.9,0.38-1.95,0.42-2.93c0.05-1.28-0.21-2.59-0.02-3.84c0.21-1.48-0.18-2.39-1.57-2.99c-0.8-0.35-1.69-0.8-2.2-1.47
				c-1.17-1.52-2.22-3.17-3.13-4.86c-0.1-0.19-0.02-0.55,0.14-0.9l0.54,0.01c1.15,1.92,1.84,3.57,2.98,4.8
				c0.92,0.99,2.31,1.71,3.62,2.1c1.12,0.33,1.47-0.61,1.11-1.66c-0.58-1.68-1.17-3.35-1.67-4.76c0.86-1.16,1.58-2.12,2.45-3.3
				l0.56-0.59c4.58,4.37,8.61,9.26,12.02,14.66c5.95,9.41,10.05,19.64,11.58,30.78c0.25,1.81,0.56,3.62,0.84,5.43
				c0.15-0.82,0.2,3.32,0.21,7.62h-0.69c0-3.89-0.3-7.75-0.84-11.61c-0.97-6.86-2.76-13.59-5.68-19.91
				c-1.54-3.34-2.65-6.92-5.66-9.51c-2.06-1.77-4.71-2.99-5.86-5.83c-0.54-1.33-3.43-1.23-4.57-0.23c-0.72,0.64-1.63,1.05-2.45,1.57
				c-1.31,1.46-1.4,3.07-0.66,4.93c0.31,0.78-0.22,2.03-0.64,2.95c-1.28,2.8-1.9,5.68-1.22,8.71c0.39,1.71,1.63,3.4,1.52,5.03
				c-0.02,0.24-0.02,0.47-0.02,0.71l-0.48-0.01c0-1.36-0.46-2.87-1.07-4.06C416.93,523.81,417.96,520.35,419.36,516.77z"/>
			<path class="st20" d="M413.21,494.46c1.38,1.63,2.76,3.25,4.55,5.33h-4.22l-0.54-0.01c0.14-0.31,0.36-0.63,0.56-0.82
				c0.33-0.31,1.07-0.16,1.63-0.22c0.07-0.17,0.14-0.35,0.21-0.52c-1.12-0.76-2.29-1.47-3.33-2.32c-0.47-0.39-1.11-1.18-0.99-1.61
				c0.6-2.17-0.99-5.52-3.11-6.52c-2.02-0.95-4.08-1.92-5.91-3.19c-2.74-1.92-5.6-3.6-8.67-4.82c0.03-0.06,0.06-0.12,0.09-0.19
				c0.14-0.31,0.23-0.65,0.27-1c7.5,2.68,14.51,6.4,21.01,11.21c2.76,2.04,5.38,4.24,7.83,6.59l-0.56,0.59
				c-2.62-2.16-5.03-4.25-7.57-6.18c-0.57-0.43-1.53-0.33-2.11-0.43c0.2,1.82,0.35,3.21,0.5,4.61
				C412.97,494.8,413.09,494.63,413.21,494.46z"/>
			<path class="st20" d="M399.12,562.31c1.99,0.68,2.82,2.53,1.59,4.31c-1.31,1.92-2.99,3.58-4.41,5.44
				c-0.56,0.72-1.21,1.65-1.22,2.49c-0.05,4.02-2.11,7.18-4.12,10.38c-0.23,0.37-0.7,0.67-1.12,0.8c-1.87,0.58-3.78,1.01-5.63,1.66
				c-1.66,0.58-2.93,1.6-2.88,3.62c0.01,0.53-0.08,0.99-0.25,1.39c-0.47,1.15-1.53,1.89-2.53,2.7c-0.75,0.61-1.61,1.23-2.06,2.04
				c-1.72,3.12-2.73,3.62-6.07,2.66c-0.29-0.08-0.62-0.01-1.2-0.01c0.32,0.66,0.53,1.11,0.75,1.56c0.9,1.82,0.41,2.8-1.64,3.2
				c-0.72,0.14-1.49,0.06-2.18,0.27c-0.49,0.14-1.26,0.57-1.28,0.9c-0.09,1.85-1.25,1.75-2.65,1.39c-0.1,0.58-0.14,1.02-0.25,1.44
				c-0.23,0.88-0.25,2.02-0.82,2.56c-1.19,1.12-2.18,1.94,0.04,2.78c-0.83,1.52-1.36,3.07-2.41,4.09c-0.41,0.4-2.56-0.08-2.91-0.72
				c-0.72-1.28-0.86-2.94-1.01-4.46c-0.12-1.25,0.09-2.53,0.14-3.79c0.01-0.25,0-0.6-0.14-0.74c-1.42-1.38-1.76-2.87-1.66-4.43
				c0.07-1.15,0.39-2.33,0.69-3.51c0.2-0.76,0.38-1.56,0.39-2.35c0.04-3.73,0-7.46,0.05-11.18c0.02-1.38,0.25-2.76,0.29-4.14
				c0.05-2.27-1.09-3.99-3.14-4.65c-3.79-1.22-5.59-4.1-7.25-7.38c-1.26-2.47-2.96-4.73-4.47-7.07c-0.78-1.22-1.15-2.43,0.06-3.62
				c0.7-0.69,1.01-1.19-0.01-2.08c-1.38-1.2-0.06-2.47,0.48-3.55c0.49-0.99,1.34-1.81,2.11-2.63c2.1-2.22,2.43-4.01,1.17-6.81
				c-0.16-0.36-0.31-0.72-0.35-0.81c0.94-0.68,2.06-1.1,2.5-1.9c1.11-2,2.9-2.79,4.98-3.55c0.59,1.13,1.36,1.73,2.62,0.77
				c0.31-0.24,0.91-0.27,1.32-0.16c1.65,0.47,3.24,1.19,4.91,1.5c1.11,0.21,2.31-0.09,3.67-0.18c1.46,0.41,2.26,2.17,4.18,2.69
				c0.33,0.08,0.62,0.26,0.91,0.49c0.84,0.68,1.56,1.84,2.44,2.59c0.41,0.35,1.17,0.59,1.69,0.48c3.16-0.66,6.2,1.02,7.45,3.95
				c0.72,1.68,1.41,3.1-0.56,4.38c-0.18,0.12,0.08,0.91,0.14,1.39c0.4-0.12,0.83-0.19,1.21-0.37c0.64-0.31,1.24-0.68,1.85-1.03
				c0.14,0.21,0.29,0.41,0.43,0.61l-1.49,1.85c0.09,0.16,0.18,0.33,0.27,0.5c0.54-0.24,1.17-0.37,1.59-0.74
				c1.78-1.55,3.68-1.35,5.07,0.49c0.35,0.45,1.06,0.78,1.65,0.87c2.76,0.42,5.78,0.04,7.73,2.77
				C398.07,561.88,398.63,562.14,399.12,562.31z"/>
			<path class="st20" d="M389.51,631.16c-0.6,0-1.22-0.09-1.8-0.01l-0.14-0.91c1.69-0.25,3.41-0.4,5.09-0.68
				c-0.22,0.64-0.28,1.32-0.2,1.99c-0.9,0.31-1.8,0.61-2.72,0.89l-0.23-0.73C389.51,631.53,389.51,631.35,389.51,631.16z"/>
			<path class="st20" d="M400.71,566.62c1.22-1.79,0.4-3.64-1.59-4.31c-0.49-0.16-1.05-0.43-1.34-0.82
				c-1.95-2.74-4.97-2.35-7.73-2.77c-0.59-0.09-1.3-0.42-1.65-0.87c-1.38-1.84-3.29-2.04-5.07-0.49c-0.42,0.37-1.05,0.5-1.59,0.74
				c-0.09-0.17-0.18-0.33-0.27-0.5l1.49-1.85c-0.14-0.21-0.29-0.41-0.43-0.61l0.29-0.6c2.29,1,5.04,0.84,6.78,3
				c0.14,0.18,0.47,0.23,0.73,0.27c3,0.54,6.31,0.26,8.38,3.26c0.14,0.21,0.6,0.29,0.91,0.29c1.33,0.02,1.71,0.84,2.09,1.98
				c0.66,1.94,0.25,3.54-1.02,5.02c-1.3,1.52-2.65,3.01-3.9,4.57c-0.42,0.52-0.86,1.24-0.86,1.86c0.04,4.08-2.1,7.32-4.11,10.56
				c-0.45,0.72-1.6,1.09-2.5,1.42c-1.84,0.68-3.82,1.05-5.56,1.91c-0.74,0.37-1.06,1.64-1.49,2.53c-0.22,0.45-0.36,0.95-0.53,1.42
				l-0.65-0.23c0.16-0.41,0.26-0.86,0.25-1.39c-0.05-2.02,1.22-3.04,2.88-3.62c1.85-0.64,3.76-1.07,5.63-1.66
				c0.42-0.13,0.89-0.44,1.12-0.8c2-3.2,4.07-6.36,4.12-10.38c0.01-0.84,0.66-1.76,1.22-2.49
				C397.73,570.21,399.4,568.54,400.71,566.62z"/>
			<path class="st20" d="M386.32,630.45c0.41-0.08,0.83-0.15,1.25-0.21l0.14,0.91c-0.06,0.01-0.12,0.02-0.18,0.03
				c-2.33,0.5-4.63,1.16-6.96,1.62c-3.29,0.65-6.6,1.19-9.91,1.77c6.47,0.21,12.69-1.13,18.85-2.86l0.23,0.73
				c-3.7,1.17-7.58,2.15-11.62,2.97c0,0-10.58-0.01-16.74-0.05l0-0.76c1.11,0,2.24-0.06,3.37-0.19c-0.62-0.19-1.23-0.38-1.84-0.57
				c-0.05-0.17-0.1-0.35-0.16-0.53c1.39-0.55,2.77-1.09,4.63-1.83l0.33-0.01c0.06,0.66-0.51,1.09-1.79,2.05
				c0.75,0.19,1.29,0.49,1.78,0.43c1.92-0.22,3.84-0.48,5.73-0.85C377.73,632.26,382.01,631.29,386.32,630.45z"/>
			<path class="st20" d="M370.69,491.52c-1.81,0.46-3.65,1.37-5.44,1.28c-2.42-0.12-4.45,0.32-6.39,1.68
				c-0.41,0.29-1.01,0.31-1.52,0.46c0.26,0.28,0.52,0.56,0.78,0.83c1.38-0.53,2.75-1.06,4.26-1.64c0.49,1.92,0.65,2.96-1.59,3.6
				c-1.8,0.51-4.43,0.65-4.84,3.44c-0.01,0.06-0.08,0.15-0.12,0.15c-2.12,0.05-3.24,1.99-4.97,2.66c-1.11,0.43-1.75,0.72-1.66,2
				c0.1,1.45-0.45,2.58-1.87,3.21c-0.6,0.27-1.12,0.72-1.7,1.06c-3.41,1.96-3.68,2.6-3.15,6.45c0.14,0.99-0.12,2.04-0.19,3.07
				c-0.33,0.02-0.66,0.04-0.98,0.06c-0.23-0.94-0.61-1.87-0.66-2.82c-0.08-1.62-0.35-2.68-2.41-2.52c-0.24,0.02-0.49,0.01-0.73-0.01
				c-1.2-0.1-2.43-0.58-3.58-0.39c-2.21,0.37-4.38,0.98-6.54,1.6c-0.52,0.14-1.04,0.3-1.56,0.44c-0.54,0.15-1.28,0.56-1.41,1.01
				c-0.86,2.96-2.99,5.51-2.63,8.88c0.32,2.95,1.6,3.85,4.51,3.54c1.75-0.19,2.62-0.82,3.26-2.31c0.67-1.54,1.94-1.85,3.56-1.35
				c-0.97,2.31-1.92,4.57-3.08,7.33c1.66-0.13,2.81-0.28,3.96-0.31c1.13-0.02,2.55,0.23,2.43,1.4c-0.01,0.13-0.04,0.28-0.1,0.43
				c-0.99,2.83-1.3,5.37,1.25,7.76c-0.28,0.13-0.56,0.27-0.84,0.4c-1.09-1.24-2.37-2.37-3.23-3.75c-1.11-1.78-2.44-2.94-4.5-3.56
				c-1.28-0.39-2.47-1.4-3.46-2.39c-0.89-0.9-1.53-1.48-2.9-0.84c-0.66,0.31-1.73,0.17-2.43-0.16c-1.44-0.67-2.78-1.57-4.12-2.45
				c-0.2-0.13-0.39-0.27-0.58-0.41c-1.17-0.9-1.85-1.98-0.9-3.73c0.29-0.54,0.04-1.43-0.08-2.14c-0.59-3.3-1.22-6.6-1.84-9.9
				c-0.05-0.26,0-0.62-0.15-0.76c-1.23-1.17-1.79-2.37-1.91-3.56c-0.21-2.08,0.91-4.12,2.1-5.88c2.03-3.01,5.01-5.38,7.57-8.04
				c0.32-0.33,0.75-0.72,0.8-1.11c0.11-0.86,0.39-1.59,0.79-2.24c1-1.66,2.71-2.78,3.99-4.22c5.27-5.89,12.77-7.43,19.77-9.89
				c0.79-0.28,1.89,0.33,2.85,0.52l-0.03,0.75c-0.88,0.19-1.76,0.39-2.71,0.6c1.58,1.24,4.62,1.09,6.56-0.25
				c0.52,1.71,0.14,2.17-1.78,2.83c-1.81,0.62-3.6,1.35-5.3,2.23c-0.32,0.17-0.62,0.52-0.83,0.91c-0.16,0.31-0.28,0.64-0.31,0.93
				c-0.04,0.36,0.82,0.93,1.36,1.24c0.97,0.56,2.08,0.89,2.98,1.53c0.42,0.29,0.41,1.14,0.75,1.63c0.45,0.65,1.05,1.2,1.58,1.79
				c0.47-0.55,0.95-1.09,1.41-1.66c0.51-0.62,0.88-1.46,1.53-1.84c0.99-0.6,1.6-1.05,1.54-2.43c-0.02-0.43,0.19-1.05,0.48-1.55
				c0.28-0.48,0.64-0.88,0.96-0.93c0.98-0.18,2.44,0.31,3.14,1.04c1.11,1.15,1.86,2.26,3.6,1.05c0.31-0.22,1.44,0.03,1.52,0.27
				c0.82,2.54,3.46,2.65,5.16,3.99C370.28,490.68,370.45,490.78,370.69,491.52z"/>
			<path class="st20" d="M381.88,554.02c0.3,0.2,0.62,0.37,0.95,0.51l-0.29,0.6c-0.62,0.35-1.22,0.72-1.85,1.03
				c-0.37,0.18-0.8,0.25-1.21,0.37c-0.06-0.48-0.31-1.27-0.14-1.39c1.98-1.28,1.29-2.7,0.56-4.38c-1.26-2.92-4.29-4.6-7.45-3.95
				c-0.52,0.11-1.28-0.13-1.69-0.48c-0.88-0.75-1.59-1.91-2.44-2.59l0.36-0.43c0.81,0.68,1.62,1.35,2.45,2.01
				c0.46,0.36,1.23,0.54,1.83,0.47C378.4,545.23,381.43,550,381.88,554.02z"/>
			<path class="st20" d="M367.72,631.48l-0.33,0.01c-1.17-0.9-1.92-1.47-3.03-2.33l-1.06-0.17c0.75-1.7,2.25-2.32,4.04-1.63
				c-0.36,0.56-0.71,1.09-1.05,1.6C367.18,630.23,367.67,630.93,367.72,631.48z"/>
			<path class="st20" d="M362.83,632c1.63-0.08,1.78-0.43,1.53-2.84c1.11,0.86,1.86,1.43,3.03,2.33c-1.86,0.74-3.25,1.28-4.63,1.83
				c0.06,0.18,0.11,0.35,0.16,0.53c0.62,0.19,1.23,0.38,1.84,0.57c-1.13,0.13-2.25,0.19-3.37,0.19c-4.26,0-8.41-0.88-12.5-2.16
				c4.49-0.14,8.99-0.3,13.48-0.42C362.54,632.02,362.69,632.01,362.83,632z"/>
			<path class="st20" d="M370.93,489.8c0.06,0.02,0.16,0.08,0.15,0.11c-0.04,0.47,0,1.11-0.02,1.61h-0.37
				c-0.24-0.74-0.41-0.84-0.56-0.97c-1.7-1.34-4.34-1.45-5.16-3.99c-0.08-0.25-1.2-0.49-1.52-0.27c-1.74,1.21-2.49,0.1-3.6-1.05
				c-0.7-0.73-2.16-1.21-3.14-1.04c-0.31,0.05-0.68,0.45-0.96,0.93l-1.05-0.39c0.9-1.59,2.28-2.89,4.32-3.82l1,0.68
				c-0.13,0.07-0.27,0.14-0.4,0.22c0.05,0.27,0.09,0.54,0.14,0.8c1.26,0.25,2.52,0.49,4.22,0.83l0.41,0.4
				c-0.12,0.11-0.24,0.22-0.35,0.33C366.05,486.57,367.94,488.9,370.93,489.8z"/>
			<path class="st20" d="M364.36,629.16c0.25,2.42,0.1,2.76-1.53,2.84l-0.04-0.61c0.04-0.95,0.22-1.76,0.51-2.41L364.36,629.16z"/>
			<path class="st20" d="M381.75,592.63c-0.19,0.52-0.39,1.01-0.72,1.39c-1.01,1.17-2.73,1.88-3.42,3.17
				c-1.34,2.5-2.98,4.17-5.92,4.11c0.06,2.6-1.13,3.9-3.62,4.24c-0.7,0.1-1.63,0.19-2,0.64c-1.69,2.07-3.21,4.28-4.78,6.42
				c1.17,1.04,1.17,1.04-1.23,5.08c0.78,0.62,1.61,1.24,2.39,1.92c0.27,0.24,0.51,0.61,0.56,0.95c0.02,0.18-0.38,0.56-0.63,0.61
				c-1.81,0.31-3.42,0.23-5.07-1.01c-0.97-0.73-1.66-1.61-2.24-2.54l0.83-0.33c0.35,0.64,2.5,1.12,2.91,0.72
				c1.05-1.02,1.58-2.57,2.41-4.09c-2.22-0.85-1.23-1.66-0.04-2.78c0.57-0.54,0.58-1.68,0.82-2.56c0.11-0.42,0.15-0.86,0.25-1.44
				c1.4,0.36,2.56,0.46,2.65-1.39c0.02-0.33,0.78-0.76,1.28-0.9c0.7-0.2,1.46-0.12,2.18-0.27c2.05-0.4,2.53-1.38,1.64-3.2
				c-0.22-0.45-0.43-0.91-0.75-1.56c0.58,0,0.91-0.07,1.2,0.01c3.34,0.96,4.35,0.46,6.07-2.66c0.45-0.82,1.3-1.44,2.06-2.04
				c1-0.8,2.06-1.55,2.53-2.7L381.75,592.63z"/>
			<path class="st20" d="M353.22,603.85c-0.1,1.55,0.24,3.05,1.66,4.43c0.15,0.14,0.15,0.49,0.14,0.74
				c-0.04,1.27-0.26,2.55-0.14,3.79c0.15,1.52,0.3,3.17,1.01,4.46l-0.83,0.33c-0.58-0.94-1.07-1.94-1.63-2.9
				c-0.8-1.39-1.05-2.52,0.14-3.55c-0.45-0.72-1.14-1.32-1.13-1.9c0.02-1.81,0.1-3.62,0.21-5.42L353.22,603.85z"/>
			<path class="st20" d="M348.89,632.44c4.09,1.28,8.23,2.16,12.5,2.16l0,0.76c-2.52-0.01-4.3-0.03-4.3-0.06
				c-2.76-0.57-5.53-1.1-8.29-1.71c-0.49-0.11-0.97-0.22-1.46-0.34c0.24-0.59,0.34-1.22,0.26-1.84c1.45,0.12,2.92-0.06,4.4-0.82
				c0.26-0.14,0.65-0.04,0.98-0.02c3.27,0.27,6.53,0.54,9.81,0.81l0.04,0.61c-0.14,0.01-0.29,0.02-0.45,0.02
				C357.88,632.14,353.38,632.3,348.89,632.44z"/>
			<path class="st20" d="M358.4,476.11c-1.95,0.31-3.45,0.56-5.26,0.84C354.32,478.17,356.94,477.8,358.4,476.11z M358.08,480.2
				c-4.34,1.76-8.66,3.57-12.98,5.38l-0.67-0.06c0.21-0.39,0.51-0.74,0.83-0.91c1.7-0.88,3.49-1.61,5.3-2.23
				c1.92-0.66,2.3-1.12,1.78-2.83c-1.94,1.34-4.98,1.49-6.56,0.25c0.95-0.21,1.83-0.41,2.71-0.6l0.03-0.75
				c-0.96-0.19-2.06-0.8-2.85-0.52l-0.15-0.54c2.15-0.62,4.3-1.23,6.42-1.91c0.22-0.07,0.44-0.15,0.66-0.23
				c0.31-0.12,0.62-0.17,0.95-0.17h11.15h3c0.35,0.31,0.78,0.58,1.31,0.77c0.96,0.36,1.88,0.8,2.78,1.29
				c-4.8,0.08-9.59,0.13-10.03,0.13c0,0.23,0,0.45,0,0.68c1.75,1.11,3.5,2.21,5.34,3.37c-0.99,0.94-1.87,1.78-2.7,2.57l-0.41-0.4
				c-1.65-4.22-2.29-4.85-4.02-4.33c0.38,0.5,0.75,1,1.34,1.78c-0.46,0.25-0.88,0.47-1.28,0.7l-1-0.68c0.1-0.04,0.2-0.08,0.3-0.13
				C358.7,480.49,358.3,480.11,358.08,480.2z"/>
			<path class="st20" d="M350.56,489.07c-0.02,0.08-0.04,0.16-0.05,0.24c0.92-0.9,1.83-1.79,2.75-2.68c0.15,0.2,0.3,0.39,0.45,0.59
				c0.24-0.89,0.56-1.71,0.99-2.47l1.05,0.39c-0.29,0.51-0.5,1.12-0.48,1.55c0.06,1.38-0.55,1.84-1.54,2.43
				c-0.65,0.39-1.02,1.22-1.53,1.84c-0.46,0.56-0.94,1.11-1.41,1.66c-0.53-0.59-1.13-1.14-1.58-1.79c-0.34-0.49-0.33-1.33-0.75-1.63
				c-0.91-0.64-2.01-0.97-2.98-1.53c-0.55-0.31-1.4-0.88-1.36-1.24c0.04-0.29,0.15-0.62,0.31-0.93l0.67,0.06c0,0.3,0,0.6-0.01,0.9
				C346.93,487.35,348.77,488.22,350.56,489.07z"/>
			<path class="st20" d="M350.35,507.04c-0.83,0.84-1.36,2-2.23,2.79c-0.77,0.7-1.83,1.06-2.76,1.6c-2.35,1.36-2.73,2.37-2.08,5.09
				c0.43,1.84,0.43,3.59-2.09,4.92c-0.5-1.37-0.99-2.59-1.41-3.84c-0.18-0.56-0.04-1.3-0.37-1.7c-0.33-0.4-1.09-0.65-1.98-0.75
				l0.08-0.64c0.25,0.02,0.49,0.03,0.73,0.01c2.06-0.16,2.33,0.9,2.41,2.52c0.05,0.95,0.43,1.88,0.66,2.82
				c0.33-0.02,0.66-0.04,0.98-0.06c0.07-1.02,0.33-2.07,0.19-3.07c-0.53-3.85-0.26-4.49,3.15-6.45c0.58-0.33,1.1-0.78,1.7-1.06
				c1.41-0.64,1.97-1.76,1.87-3.21c-0.09-1.28,0.55-1.57,1.66-2c1.73-0.67,2.85-2.61,4.97-2.66c0.04,0,0.12-0.09,0.12-0.15
				c0.41-2.79,3.03-2.92,4.84-3.44c2.24-0.64,2.08-1.69,1.59-3.6c-1.51,0.58-2.88,1.11-4.26,1.64c-0.26-0.28-0.52-0.56-0.78-0.83
				c0.51-0.14,1.11-0.17,1.52-0.46c1.94-1.36,3.97-1.8,6.39-1.68c1.79,0.09,3.62-0.82,5.44-1.28h0.37c-0.02,0.39-0.08,0.7-0.24,0.78
				c-1.6,0.72-3.34,1.3-5.07,1.5c-1.19,0.14-1.88,0.38-2.1,1.59c-0.28,1.54,0.86,1.31,1.75,1.49c0.4,0.08,0.86,0.35,1.08,0.68
				c0.11,0.16-0.2,0.91-0.39,0.94c-1.74,0.28-3.14,1.87-5.29,0.95c-0.88-0.37-3.21,0.45-3.42,1.16c-0.43,1.45-1.49,1.44-2.32,2.08
				C353.37,503.99,351.84,505.51,350.35,507.04z"/>
			<path class="st20" d="M344.24,570.65c1.66,3.28,3.46,6.16,7.25,7.38c2.05,0.66,3.19,2.38,3.14,4.65
				c-0.03,1.38-0.27,2.76-0.29,4.14c-0.05,3.73,0,7.46-0.05,11.18c-0.01,0.78-0.19,1.58-0.39,2.35c-0.3,1.18-0.62,2.36-0.69,3.51
				l-0.57-0.04c0.06-1.03,0.13-2.06,0.2-3.09c0.09-1.31,0.47-2.6,0.52-3.91c0.14-3.92-0.06-7.88,0.35-11.77
				c0.35-3.26-0.09-4.9-2.97-6.44c-0.76-0.41-1.54-0.78-2.33-1.15c-1.7-0.79-2.74-2.03-3.58-3.79c-1.42-2.99-3.08-5.94-5.09-8.56
				c-1.42-1.86-2.11-3.43-0.95-5.56c0.13-0.23,0.09-0.64-0.02-0.9c-0.91-2.14,0.09-3.72,1.25-5.45c1.25-1.87,4.07-2.99,3.32-5.91
				c-0.38-1.48-1.1-2.88-1.81-4.68c-0.45,0.7-0.77,0.98-0.82,1.3c-0.27,1.77-1.3,1.4-2.31,0.82c-0.68-0.39-1.35-0.8-2.02-1.22
				l0.34-0.56c0.28-0.13,0.56-0.27,0.84-0.4c-2.54-2.39-2.24-4.93-1.25-7.76c0.06-0.16,0.09-0.3,0.1-0.43l0.65,0.05
				c-0.07,0.7-0.28,1.63-0.57,2.88c-0.14,0.63-0.14,1.35-0.01,1.99c0.35,1.71,1.75,2.74,3.17,2.16c1.51-0.61,2.79-0.49,4.18,0.29
				c0.33,0.19,1.31-0.07,1.45-0.37c0.86-1.84,2.45-2.42,4.14-3.32c2.46-1.31,4.2-0.45,6.22,0.55c0.82,0.4,1.85,0.38,2.66,0.78
				c1.7,0.86,3.27,0.64,4.96-0.03c0.36-0.14,1.08,0.35,1.51,0.7c1.32,1.08,2.61,2.19,3.91,3.29l-0.36,0.43
				c-0.28-0.23-0.58-0.4-0.91-0.49c-1.92-0.52-2.73-2.29-4.18-2.69c-1.36,0.09-2.56,0.39-3.67,0.18c-1.67-0.32-3.26-1.03-4.91-1.5
				c-0.4-0.11-1.01-0.08-1.32,0.16c-1.26,0.96-2.03,0.36-2.62-0.77c-2.08,0.76-3.88,1.56-4.98,3.55c-0.44,0.8-1.57,1.22-2.5,1.9
				c0.04,0.09,0.19,0.45,0.35,0.81c1.26,2.8,0.93,4.59-1.17,6.81c-0.77,0.82-1.62,1.65-2.11,2.63c-0.54,1.08-1.86,2.35-0.48,3.55
				c1.02,0.89,0.71,1.38,0.01,2.08c-1.2,1.19-0.84,2.39-0.06,3.62C341.28,565.92,342.98,568.17,344.24,570.65z"/>
			<path class="st20" d="M333.78,481.45c3.73-1.74,7.73-2.92,11.74-4.07l0.15,0.54c-7,2.45-14.51,4-19.77,9.89
				c-1.28,1.43-2.99,2.56-3.99,4.22l-0.74-0.41c0.31-0.57,0.59-1.17,0.84-1.8c-0.52,0.32-0.98,0.58-1.4,0.88
				c-0.69,0.49-1.36,1-2.03,1.51c0.07-0.5,0.04-1.01-0.11-1.52C323.13,487.13,328.25,484.03,333.78,481.45z"/>
			<path class="st20" d="M333.92,514.11c1.14-0.19,2.38,0.28,3.58,0.39l-0.08,0.64c-1.38-0.16-3.04,0-3.82,0.39
				c-0.77,0.4-1.84,0.56-2.68,0.38c-0.76-0.15-2.13,0.02-3.36,0.4l-0.17-0.6C329.54,515.09,331.71,514.48,333.92,514.11z"/>
			<path class="st20" d="M332.42,532.19c3.85,0.11,4.86,0.17,4.65,2.2l-0.65-0.05c0.11-1.16-1.3-1.42-2.43-1.4
				c-1.15,0.02-2.3,0.17-3.96,0.31c1.16-2.76,2.11-5.02,3.08-7.33c-1.62-0.51-2.9-0.19-3.56,1.35c-0.65,1.48-1.51,2.12-3.26,2.31
				c-2.91,0.31-4.18-0.58-4.51-3.54c-0.36-3.38,1.77-5.92,2.63-8.88c0.13-0.44,0.87-0.85,1.41-1.01c0.52-0.14,1.04-0.3,1.56-0.44
				l0.17,0.6c-1.2,0.37-2.27,0.95-2.53,1.62c-0.97,2.51-1.75,5.11-2.33,7.74c-0.33,1.48,0.4,3.01,2.05,3.14
				c1.48,0.12,3.27,0.13,3.94-1.85c0.56-1.64,1.86-2.13,3.44-2.18c2.15-0.06,2.49,0.52,1.54,2.49c-0.72,1.5-1.31,3.06-1.94,4.54
				C332.19,532.07,332.31,532.19,332.42,532.19z"/>
			<path class="st20" d="M333.51,539.19c0.86,1.38,2.14,2.51,3.23,3.75l-0.34,0.56c-1.02-0.63-2.03-1.27-3.04-1.92
				c-0.31-0.2-0.67-0.58-0.69-0.9c-0.21-2.84-2.26-3.6-4.52-4.28c-0.92-0.27-2.01-0.74-2.51-1.48c-0.99-1.46-1.94-2.21-3.7-1.36
				c-0.36,0.17-1,0.09-1.36-0.12c-1.84-1.12-3.72-2.2-5.45-3.46l0.41-0.58c0.18,0.14,0.37,0.27,0.58,0.41
				c1.33,0.88,2.68,1.77,4.12,2.45c0.7,0.33,1.77,0.47,2.43,0.16c1.36-0.64,2-0.05,2.9,0.84c0.98,0.99,2.17,2,3.46,2.39
				C331.07,536.25,332.39,537.41,333.51,539.19z"/>
			<path class="st20" d="M313.18,521.89c-0.31-0.92-0.64-1.82-0.98-2.77c-0.06,1.23-0.08,2.47-0.22,3.69
				c-0.04,0.38-0.43,0.72-0.66,1.07c-0.3-0.22-0.78-0.39-0.86-0.67c-0.53-1.85-1.32-3.72-1.36-5.59c-0.04-1.76,0.8-3.53,1.14-5.32
				c0.13-0.69-0.03-1.43-0.06-2.15c-0.01-0.27-0.03-0.55-0.06-0.82l0.54-0.06c0.12,1.19,0.68,2.39,1.91,3.56
				c0.15,0.15,0.1,0.51,0.15,0.76c0.62,3.3,1.25,6.59,1.84,9.9c0.12,0.71,0.37,1.6,0.08,2.14c-0.95,1.75-0.27,2.84,0.9,3.73
				l-0.41,0.58c-0.3-0.21-0.59-0.43-0.88-0.66c-0.65-0.51-1.13-2.14-0.8-2.8C314.3,524.79,313.67,523.4,313.18,521.89z"/>
			<path class="st20" d="M312.75,503.41c-1.19,1.77-2.31,3.81-2.1,5.88l-0.54,0.06c-0.07-0.75-0.16-1.51,0-2.21
				c0.87-3.95,3.36-6.93,6.2-9.62c1.87-1.77,3.61-3.61,4.86-5.91l0.74,0.41c-0.39,0.65-0.68,1.38-0.79,2.24
				c-0.05,0.4-0.49,0.78-0.8,1.11C317.76,498.03,314.78,500.39,312.75,503.41z"/>
		</g>
	</g>
	<g>
		<rect x="235.66" y="407.8" class="st21" width="14.85" height="110.83"/>
		<g>
			<rect x="183.59" y="269" class="st7" width="119" height="158.53"/>
			<rect x="190.15" y="304.03" class="st10" width="105.86" height="103.77"/>
			<text transform="matrix(1 0 0 1 239.6927 316.1101)"><tspan x="0" y="0" class="st11 st22">I</tspan><tspan x="-37.51" y="21.32" class="st11 st22">FUCKING </tspan><tspan x="-21.82" y="42.63" class="st11 st22">HATE </tspan><tspan x="-35.36" y="63.95" class="st11 st22">ALL YOU </tspan><tspan x="-33.78" y="85.26" class="st11 st22">PEOPLE. </tspan></text>
		</g>
	</g>
</g>
</svg>
